<svg width="120" height="37" viewBox="0 0 120 37" fill="none" xmlns="http://www.w3.org/2000/svg">
<path d="M94.9962 30.4626C94.9962 30.0226 94.8226 29.6007 94.5136 29.2896C94.2046 28.9785 93.7856 28.8037 93.3486 28.8037H89.7916C89.7568 28.8037 89.7223 28.8106 89.6901 28.8241C89.6579 28.8376 89.6287 28.8573 89.6042 28.8823L87.6987 30.8009C87.6739 30.8255 87.6542 30.8549 87.6408 30.8873C87.6274 30.9197 87.6205 30.9544 87.6206 30.9895V34.8422C87.6211 35.1242 87.7064 35.3995 87.8653 35.6317C88.0242 35.8639 88.2493 36.0422 88.5108 36.1431C88.6678 36.2036 88.8346 36.2343 89.0028 36.2336H89.483C89.5178 36.2336 89.5524 36.2267 89.5845 36.2132C89.6167 36.1997 89.6459 36.1799 89.6704 36.155L91.4708 34.3429C91.5082 34.3057 91.5337 34.2581 91.5442 34.2062C91.5546 34.1543 91.5494 34.1005 91.5293 34.0515C91.5092 34.0026 91.4751 33.9608 91.4313 33.9315C91.3875 33.9022 91.336 33.8866 91.2834 33.8869H90.3382C90.2367 33.8868 90.1395 33.8461 90.0678 33.7739C89.996 33.7017 89.9557 33.6038 89.9555 33.5016V31.5399C89.9557 31.4378 89.996 31.3399 90.0678 31.2677C90.1395 31.1954 90.2367 31.1548 90.3382 31.1546H92.2865C92.388 31.1548 92.4852 31.1954 92.5569 31.2677C92.6287 31.3399 92.669 31.4378 92.6692 31.5399V33.2068C92.6692 33.2777 92.6972 33.3456 92.747 33.3957C92.7968 33.4459 92.8643 33.4741 92.9347 33.4741H94.7347C94.805 33.474 94.8725 33.4458 94.9223 33.3957C94.972 33.3456 95 33.2776 95.0001 33.2068L94.9962 30.4626Z" fill="#EE2B39"/>
<path d="M90.2933 36.0709L92.4798 33.8733C92.5027 33.8505 92.5336 33.8378 92.5658 33.8379L94.5454 33.8497C94.5698 33.8498 94.5936 33.8572 94.6138 33.8709C94.634 33.8847 94.6497 33.9041 94.6589 33.9269C94.6681 33.9496 94.6704 33.9746 94.6655 33.9986C94.6606 34.0227 94.6487 34.0447 94.6313 34.0619L92.437 36.2517C92.4141 36.2745 92.3832 36.2872 92.3511 36.287L90.3753 36.2792C90.3515 36.2788 90.3284 36.2713 90.3088 36.2576C90.2892 36.244 90.2741 36.2248 90.2653 36.2026C90.2565 36.1803 90.2545 36.1559 90.2595 36.1324C90.2645 36.109 90.2763 36.0876 90.2933 36.0709Z" fill="#EE2B39"/>
<path d="M99.5994 30.1709C99.8225 30.1667 100.045 30.1915 100.262 30.2447C100.427 30.2849 100.58 30.3653 100.707 30.4788C100.825 30.5925 100.911 30.7357 100.955 30.8935C101.011 31.0958 101.036 31.3049 101.032 31.5145V32.3032C101.032 32.7172 100.954 33.0284 100.799 33.2369C100.644 33.4454 100.385 33.5734 100.024 33.6208L100.612 34.4299C100.62 34.4411 100.625 34.4536 100.627 34.4668C100.629 34.48 100.628 34.4934 100.625 34.5064C100.62 34.5403 100.593 34.5573 100.546 34.5573H99.891C99.8595 34.5597 99.8279 34.5545 99.7989 34.542C99.7794 34.5297 99.7622 34.5142 99.7478 34.4962L99.1595 33.6467H98.0185C97.7964 33.6509 97.5746 33.6269 97.3585 33.5754C97.1939 33.5364 97.0418 33.4568 96.9163 33.3439C96.7971 33.2292 96.7105 33.0851 96.6653 32.9263C96.6082 32.7236 96.5815 32.5136 96.586 32.303V31.5143C96.5813 31.3046 96.6081 31.0953 96.6653 30.8933C96.7109 30.7356 96.7973 30.5926 96.916 30.4786C97.0418 30.3655 97.1937 30.2851 97.3582 30.2445C97.574 30.1912 97.7959 30.1664 98.0182 30.1708L99.5994 30.1709ZM97.3687 32.2471C97.3666 32.3591 97.3778 32.471 97.402 32.5804C97.4188 32.6601 97.4568 32.7339 97.5119 32.7941C97.5691 32.8501 97.6409 32.8889 97.7192 32.9062C97.8275 32.9306 97.9385 32.9418 98.0495 32.9394H99.5687C99.6797 32.9418 99.7905 32.9307 99.8987 32.9064C99.977 32.8891 100.049 32.8502 100.106 32.7943C100.161 32.7341 100.199 32.6603 100.216 32.5806C100.24 32.4712 100.251 32.3593 100.249 32.2472V31.5705C100.251 31.4584 100.24 31.3465 100.216 31.2371C100.199 31.1574 100.161 31.0836 100.106 31.0234C100.049 30.9675 99.977 30.9286 99.8987 30.9113C99.7905 30.887 99.6797 30.8759 99.5687 30.8783H98.0495C97.9386 30.8759 97.8278 30.887 97.7195 30.9113C97.6412 30.9286 97.5694 30.9674 97.5123 31.0234C97.4571 31.0836 97.4191 31.1574 97.4023 31.2371C97.3781 31.3465 97.3669 31.4584 97.369 31.5705L97.3687 32.2471ZM103.605 30.1709C103.72 30.1672 103.833 30.1944 103.933 30.2499C104.045 30.3288 104.134 30.4347 104.194 30.5577L105.887 33.6159C105.895 33.6282 105.9 33.6421 105.902 33.6565C105.905 33.6709 105.904 33.6857 105.9 33.6998C105.891 33.7219 105.867 33.7329 105.826 33.7329H105.176C105.152 33.7353 105.128 33.7303 105.107 33.7184C105.086 33.7066 105.069 33.6885 105.058 33.6668L104.695 33.0103H102.291L101.938 33.6668C101.926 33.688 101.909 33.7055 101.889 33.7173C101.868 33.729 101.844 33.7345 101.82 33.7329H101.155C101.11 33.7329 101.084 33.7219 101.075 33.6998C101.072 33.6857 101.071 33.6709 101.073 33.6565C101.075 33.6421 101.08 33.6282 101.088 33.6159L102.766 30.5577C102.825 30.437 102.91 30.3316 103.017 30.2499C103.103 30.1963 103.202 30.1688 103.303 30.1709H103.605ZM102.613 32.4201H104.373L103.559 30.9291C103.554 30.9185 103.546 30.9095 103.536 30.9032C103.526 30.8969 103.515 30.8936 103.503 30.8935H103.472C103.461 30.8936 103.449 30.8969 103.439 30.9032C103.429 30.9095 103.421 30.9185 103.416 30.9291L102.613 32.4201ZM105.688 30.1709C105.713 30.169 105.739 30.1743 105.762 30.1862C105.78 30.1997 105.795 30.2171 105.805 30.2371L107.304 32.9747C107.31 32.9864 107.318 32.9961 107.329 33.0025C107.34 33.0089 107.353 33.0117 107.366 33.0103H107.391C107.403 33.0103 107.415 33.0069 107.425 33.0006C107.435 32.9943 107.443 32.9853 107.448 32.9747L108.926 30.2371C108.937 30.2153 108.953 30.1973 108.975 30.1854C108.996 30.1736 109.02 30.1685 109.044 30.1709H109.714C109.755 30.1709 109.78 30.182 109.788 30.204C109.792 30.2181 109.793 30.2328 109.791 30.2473C109.789 30.2617 109.783 30.2756 109.775 30.2879L108.097 33.3462C108.041 33.4684 107.954 33.575 107.847 33.6567C107.761 33.7087 107.661 33.7352 107.561 33.733H107.264C107.149 33.7374 107.035 33.711 106.934 33.6567C106.822 33.5772 106.733 33.4702 106.676 33.3462L104.977 30.288C104.969 30.2756 104.963 30.2618 104.961 30.2474C104.959 30.2329 104.96 30.2182 104.964 30.2041C104.972 30.182 104.999 30.171 105.043 30.171L105.688 30.1709ZM110.753 30.1709C110.768 30.1687 110.784 30.1701 110.798 30.175C110.813 30.1798 110.826 30.188 110.837 30.1989C110.848 30.2098 110.857 30.2231 110.861 30.2377C110.866 30.2523 110.868 30.2678 110.865 30.2831V33.6208C110.868 33.636 110.866 33.6516 110.861 33.6662C110.857 33.6808 110.848 33.6941 110.837 33.705C110.826 33.7159 110.813 33.724 110.798 33.7289C110.784 33.7338 110.768 33.7351 110.753 33.7329H110.2C110.122 33.7329 110.083 33.6955 110.083 33.6208V30.2831C110.083 30.2083 110.122 30.1709 110.2 30.1709H110.753Z" fill="black"/>
<path d="M37.5194 7.65647C42.2055 14.0444 41.6659 23.1352 35.9005 28.9005C30.1351 34.6659 21.0443 35.2055 14.6564 30.5194L19.2316 25.9443C23.2433 28.6095 28.2273 28.3893 31.8083 24.8083C35.4274 21.1892 35.5552 16.2977 32.8626 12.3132L37.5194 7.65647Z" fill="#6402B1"/>
<path d="M12.7705 5.77057C18.536 0.00510257 27.6271 -0.534493 34.015 4.15186L29.3555 8.81138C25.3925 6.14872 20.4769 6.24867 16.8628 9.8628C13.2867 13.4389 13.0947 18.4465 15.7299 22.437L11.1519 27.015C6.46552 20.6271 7.00508 11.536 12.7705 5.77057Z" fill="#6402B1"/>
<path d="M20.6406 16.2197C20.8334 16.2199 20.9902 16.3765 20.9902 16.5693V22.9082C20.9902 23.0031 20.952 23.0894 20.8906 23.1523C20.8898 23.2407 20.8555 23.3291 20.7881 23.3965L14.2998 29.8848C14.1634 30.0212 13.9422 30.021 13.8057 29.8848L11.7764 27.8555C11.64 27.719 11.6399 27.4978 11.7764 27.3613L17.4209 21.7168V16.5693C17.421 16.3765 17.5777 16.2199 17.7705 16.2197H20.6406Z" fill="#F7A837"/>
<path d="M22.6533 14.5243C22.6533 14.1382 22.9663 13.8252 23.3524 13.8252H25.5227C25.9088 13.8252 26.2218 14.1382 26.2218 14.5243V22.8204C26.2218 23.2065 25.9088 23.5195 25.5227 23.5195H23.3524C22.9663 23.5195 22.6533 23.2065 22.6533 22.8204V14.5243Z" fill="#D00CA4"/>
<path d="M34.105 5.09145C34.378 4.81848 34.8206 4.81848 35.0936 5.09145L36.6283 6.62609C36.9012 6.89909 36.9012 7.34174 36.6283 7.61474L31.4535 12.7895V22.7993C31.4534 23.1854 31.1405 23.4984 30.7544 23.4984H28.6043C28.2183 23.4984 27.9053 23.1854 27.9053 22.7993V11.7345C27.9053 11.4971 28.0238 11.2874 28.2047 11.1611C28.2302 11.0287 28.2943 10.9022 28.3968 10.7997L34.105 5.09145Z" fill="#8B3BDB"/>
<path d="M52.2293 12.6918C49.4947 12.6918 47.6328 14.8417 47.6328 17.5726C47.6328 20.3326 49.4947 22.4534 52.2293 22.4534C54.993 22.4534 56.7675 20.3326 56.7675 17.5726C56.7675 14.8417 54.993 12.6918 52.2293 12.6918ZM52.2293 10.019C56.3894 10.019 59.7931 13.4182 59.7931 17.5726C59.7931 21.7271 56.3894 25.1262 52.2293 25.1262C48.0692 25.1262 44.6655 21.7271 44.6655 17.5726C44.6655 13.4182 48.0692 10.019 52.2293 10.019Z" fill="black"/>
<path d="M71.0509 12.4013C71.0509 12.4013 72.8255 10.1643 75.3273 10.019C75.4437 10.019 75.5601 10.019 75.6764 10.019C79.3129 10.019 81.2038 13.1567 81.2038 16.3234C81.2038 16.3234 81.2038 17.2821 81.2038 18.5313C81.2038 21.0589 81.2038 24.8647 81.2038 24.8647H78.2947C78.2947 24.8647 78.2947 21.669 78.2947 19.5191C78.2947 18.4442 78.2947 17.6598 78.2947 17.6598C78.2947 17.4564 78.2947 17.224 78.2947 17.0206C78.2947 15.1903 78.1783 12.8952 75.9964 12.3723C75.7637 12.3142 75.5019 12.2851 75.2692 12.2851C73.5818 12.2851 72.1564 13.7377 72.1564 16.3234C72.1273 16.3234 72.1273 24.8647 72.1273 24.8647H69.2181C69.2181 24.8647 69.2181 21.0298 69.2181 18.5023C69.2181 17.224 69.2181 16.2653 69.2181 16.2653C69.2181 13.912 67.9963 12.2851 66.1635 12.2851C66.1345 12.2851 66.1345 12.2851 66.1054 12.2851C63.749 12.3432 63.0508 14.0283 63.0508 17.6598C63.0508 17.6598 63.0508 18.4732 63.0508 19.5191C63.0508 21.669 63.0508 24.8647 63.0508 24.8647H60.3162V17.3402C60.3162 11.7622 63.3708 10.1643 65.7854 9.98999C65.9599 9.96094 66.1054 9.96094 66.2799 9.96094C69.48 9.96094 71.0509 12.4013 71.0509 12.4013Z" fill="black"/>
<path d="M89.6777 12.6337C86.9431 12.6337 85.0231 14.8417 85.0231 17.5726C85.0231 20.3326 86.9431 22.5115 89.6777 22.5115C92.4414 22.5115 94.4487 20.3326 94.4487 17.5726C94.4487 14.8417 92.4414 12.6337 89.6777 12.6337ZM89.6777 10.019C93.4305 10.0481 97.2415 12.2561 97.2415 17.5726V24.8357H94.3324V22.9763C94.3033 23.0054 92.5869 25.1553 89.5905 25.1553H89.5614C84.9358 25.1553 82.0267 21.6399 82.0267 17.5436C82.0267 13.912 84.4122 10.019 89.6195 10.019C89.6486 10.019 89.6486 10.019 89.6777 10.019Z" fill="black"/>
<path d="M96.8326 10.3386H100.265L103.873 15.5099L107.771 10.3386H110.796L105.502 17.4855L111 24.8647H107.567L103.64 19.3739L99.1308 24.8647H96.0762L101.982 17.4855L96.8326 10.3386Z" fill="black"/>
<path d="M57.6689 34.1481V30.6025H58.867C59.1451 30.6025 59.3725 30.6527 59.5491 30.7532C59.7268 30.8524 59.8584 30.9869 59.9438 31.1565C60.0292 31.3262 60.0719 31.5155 60.0719 31.7244C60.0719 31.9333 60.0292 32.1231 59.9438 32.2939C59.8595 32.4648 59.7291 32.6009 59.5525 32.7025C59.3759 32.8029 59.1497 32.8531 58.8739 32.8531H58.0152V32.4723H58.86C59.0505 32.4723 59.2034 32.4394 59.3188 32.3736C59.4342 32.3078 59.5179 32.2189 59.5698 32.107C59.6229 31.9939 59.6495 31.8663 59.6495 31.7244C59.6495 31.5824 59.6229 31.4555 59.5698 31.3435C59.5179 31.2315 59.4336 31.1438 59.3171 31.0804C59.2005 31.0157 59.0458 30.9834 58.8531 30.9834H58.0983V34.1481H57.6689Z" fill="#343741"/>
<path d="M61.7598 34.2035C61.5198 34.2035 61.3091 34.1463 61.1279 34.0321C60.9479 33.9178 60.8071 33.758 60.7055 33.5525C60.6051 33.3471 60.5549 33.107 60.5549 32.8324C60.5549 32.5554 60.6051 32.3136 60.7055 32.107C60.8071 31.9004 60.9479 31.74 61.1279 31.6257C61.3091 31.5114 61.5198 31.4543 61.7598 31.4543C61.9999 31.4543 62.2099 31.5114 62.39 31.6257C62.5712 31.74 62.712 31.9004 62.8124 32.107C62.914 32.3136 62.9647 32.5554 62.9647 32.8324C62.9647 33.107 62.914 33.3471 62.8124 33.5525C62.712 33.758 62.5712 33.9178 62.39 34.0321C62.2099 34.1463 61.9999 34.2035 61.7598 34.2035ZM61.7598 33.8365C61.9422 33.8365 62.0922 33.7897 62.2099 33.6962C62.3277 33.6027 62.4148 33.4798 62.4714 33.3275C62.5279 33.1751 62.5562 33.0101 62.5562 32.8324C62.5562 32.6546 62.5279 32.489 62.4714 32.3355C62.4148 32.182 62.3277 32.0579 62.2099 31.9633C62.0922 31.8686 61.9422 31.8213 61.7598 31.8213C61.5775 31.8213 61.4274 31.8686 61.3097 31.9633C61.192 32.0579 61.1048 32.182 61.0483 32.3355C60.9917 32.489 60.9635 32.6546 60.9635 32.8324C60.9635 33.0101 60.9917 33.1751 61.0483 33.3275C61.1048 33.4798 61.192 33.6027 61.3097 33.6962C61.4274 33.7897 61.5775 33.8365 61.7598 33.8365Z" fill="#343741"/>
<path d="M64.1004 34.1481L63.2902 31.4889H63.7196L64.2943 33.5248H64.322L64.8899 31.4889H65.3261L65.887 33.5179H65.9147L66.4895 31.4889H66.9189L66.1086 34.1481H65.707L65.1253 32.1052H65.0838L64.5021 34.1481H64.1004Z" fill="#343741"/>
<path d="M68.4834 34.2035C68.2272 34.2035 68.0062 34.1469 67.8204 34.0338C67.6357 33.9196 67.4932 33.7603 67.3928 33.556C67.2935 33.3506 67.2439 33.1117 67.2439 32.8393C67.2439 32.5669 67.2935 32.3268 67.3928 32.1191C67.4932 31.9102 67.6328 31.7475 67.8117 31.6309C67.9918 31.5132 68.2018 31.4543 68.4419 31.4543C68.5804 31.4543 68.7172 31.4774 68.8522 31.5235C68.9872 31.5697 69.1101 31.6447 69.2209 31.7486C69.3317 31.8513 69.42 31.9875 69.4858 32.1572C69.5516 32.3268 69.5845 32.5357 69.5845 32.7839V32.957H67.5347V32.6038H69.169C69.169 32.4538 69.139 32.3199 69.079 32.2022C69.0201 32.0845 68.9359 31.9916 68.8262 31.9235C68.7177 31.8554 68.5896 31.8213 68.4419 31.8213C68.2792 31.8213 68.1384 31.8617 68.0195 31.9425C67.9018 32.0221 67.8112 32.126 67.7477 32.2541C67.6842 32.3822 67.6525 32.5196 67.6525 32.6662V32.9016C67.6525 33.1024 67.6871 33.2727 67.7563 33.4123C67.8267 33.5508 67.9243 33.6564 68.0489 33.7291C68.1736 33.8007 68.3184 33.8365 68.4834 33.8365C68.5908 33.8365 68.6877 33.8215 68.7743 33.7914C68.862 33.7603 68.9376 33.7141 69.0011 33.653C69.0646 33.5906 69.1136 33.5133 69.1482 33.421L69.543 33.5318C69.5014 33.6656 69.4316 33.7834 69.3335 33.8849C69.2354 33.9853 69.1142 34.0638 68.9699 34.1204C68.8257 34.1758 68.6635 34.2035 68.4834 34.2035Z" fill="#343741"/>
<path d="M70.206 34.1481V31.4889H70.6007V31.8906H70.6284C70.6769 31.759 70.7646 31.6522 70.8916 31.5703C71.0185 31.4883 71.1616 31.4474 71.3209 31.4474C71.3509 31.4474 71.3884 31.448 71.4334 31.4491C71.4785 31.4503 71.5125 31.452 71.5356 31.4543V31.8698C71.5217 31.8663 71.49 31.8611 71.4404 31.8542C71.3919 31.8461 71.3405 31.8421 71.2863 31.8421C71.157 31.8421 71.0416 31.8692 70.94 31.9235C70.8396 31.9766 70.76 32.0504 70.7011 32.1451C70.6434 32.2385 70.6146 32.3453 70.6146 32.4653V34.1481H70.206Z" fill="#343741"/>
<path d="M73.0539 34.2035C72.7976 34.2035 72.5766 34.1469 72.3908 34.0338C72.2061 33.9196 72.0636 33.7603 71.9632 33.556C71.8639 33.3506 71.8143 33.1117 71.8143 32.8393C71.8143 32.5669 71.8639 32.3268 71.9632 32.1191C72.0636 31.9102 72.2033 31.7475 72.3822 31.6309C72.5622 31.5132 72.7723 31.4543 73.0123 31.4543C73.1508 31.4543 73.2876 31.4774 73.4226 31.5235C73.5577 31.5697 73.6806 31.6447 73.7914 31.7486C73.9022 31.8513 73.9905 31.9875 74.0562 32.1572C74.122 32.3268 74.1549 32.5357 74.1549 32.7839V32.957H72.1052V32.6038H73.7394C73.7394 32.4538 73.7094 32.3199 73.6494 32.2022C73.5905 32.0845 73.5063 31.9916 73.3967 31.9235C73.2882 31.8554 73.1601 31.8213 73.0123 31.8213C72.8496 31.8213 72.7088 31.8617 72.5899 31.9425C72.4722 32.0221 72.3816 32.126 72.3181 32.2541C72.2546 32.3822 72.2229 32.5196 72.2229 32.6662V32.9016C72.2229 33.1024 72.2575 33.2727 72.3268 33.4123C72.3972 33.5508 72.4947 33.6564 72.6193 33.7291C72.744 33.8007 72.8888 33.8365 73.0539 33.8365C73.1612 33.8365 73.2582 33.8215 73.3447 33.7914C73.4324 33.7603 73.508 33.7141 73.5715 33.653C73.635 33.5906 73.684 33.5133 73.7187 33.421L74.1134 33.5318C74.0718 33.6656 74.002 33.7834 73.9039 33.8849C73.8058 33.9853 73.6846 34.0638 73.5403 34.1204C73.3961 34.1758 73.2339 34.2035 73.0539 34.2035Z" fill="#343741"/>
<path d="M75.7805 34.2035C75.5589 34.2035 75.3633 34.1475 75.1937 34.0355C75.024 33.9224 74.8913 33.7632 74.7955 33.5577C74.6997 33.3511 74.6518 33.107 74.6518 32.8254C74.6518 32.5461 74.6997 32.3038 74.7955 32.0983C74.8913 31.8929 75.0246 31.7342 75.1954 31.6222C75.3662 31.5103 75.5636 31.4543 75.7875 31.4543C75.9606 31.4543 76.0974 31.4832 76.1978 31.5409C76.2993 31.5974 76.3767 31.662 76.4298 31.7348C76.484 31.8063 76.5261 31.8652 76.5561 31.9113H76.5908V30.6025H76.9993V34.1481H76.6046V33.7395H76.5561C76.5261 33.788 76.4834 33.8492 76.428 33.923C76.3726 33.9957 76.2936 34.0609 76.1908 34.1186C76.0881 34.1752 75.9514 34.2035 75.7805 34.2035ZM75.8359 33.8365C75.9998 33.8365 76.1383 33.7938 76.2514 33.7083C76.3645 33.6218 76.4505 33.5023 76.5094 33.35C76.5682 33.1965 76.5977 33.0193 76.5977 32.8185C76.5977 32.62 76.5688 32.4463 76.5111 32.2974C76.4534 32.1474 76.368 32.0308 76.2549 31.9477C76.1418 31.8634 76.0021 31.8213 75.8359 31.8213C75.6628 31.8213 75.5186 31.8658 75.4031 31.9546C75.2889 32.0423 75.2029 32.1618 75.1452 32.313C75.0886 32.463 75.0604 32.6315 75.0604 32.8185C75.0604 33.0078 75.0892 33.1797 75.1469 33.3344C75.2058 33.4879 75.2923 33.6102 75.4066 33.7014C75.522 33.7914 75.6651 33.8365 75.8359 33.8365Z" fill="#343741"/>
<path d="M79.2309 34.1481V30.6025H80.4704C80.7174 30.6025 80.9211 30.6452 81.0815 30.7306C81.242 30.8149 81.3614 30.9286 81.4399 31.0717C81.5184 31.2137 81.5576 31.3712 81.5576 31.5443C81.5576 31.6967 81.5305 31.8225 81.4763 31.9217C81.4232 32.021 81.3528 32.0995 81.265 32.1572C81.1785 32.2149 81.0844 32.2576 80.9829 32.2853V32.3199C81.0914 32.3268 81.2004 32.3649 81.3101 32.4342C81.4197 32.5034 81.5115 32.6027 81.5853 32.7319C81.6592 32.8612 81.6961 33.0193 81.6961 33.2063C81.6961 33.384 81.6557 33.5439 81.5749 33.6858C81.4941 33.8278 81.3666 33.9403 81.1923 34.0234C81.0181 34.1065 80.7913 34.1481 80.512 34.1481H79.2309ZM79.6602 33.7672H80.512C80.7924 33.7672 80.9915 33.713 81.1092 33.6045C81.2281 33.4948 81.2876 33.3621 81.2876 33.2063C81.2876 33.0863 81.257 32.9755 81.1958 32.8739C81.1346 32.7712 81.0475 32.6892 80.9344 32.6281C80.8213 32.5657 80.6874 32.5346 80.5327 32.5346H79.6602V33.7672ZM79.6602 32.1606H80.4566C80.5858 32.1606 80.7024 32.1352 80.8063 32.0845C80.9113 32.0337 80.9944 31.9621 81.0556 31.8698C81.1179 31.7775 81.1491 31.669 81.1491 31.5443C81.1491 31.3885 81.0948 31.2564 80.9863 31.1479C80.8778 31.0382 80.7059 30.9834 80.4704 30.9834H79.6602V32.1606Z" fill="#343741"/>
<path d="M82.6093 35.1453C82.5401 35.1453 82.4783 35.1395 82.4241 35.128C82.3699 35.1176 82.3323 35.1072 82.3116 35.0968L82.4154 34.7367C82.5147 34.7621 82.6024 34.7713 82.6786 34.7644C82.7548 34.7575 82.8223 34.7234 82.8811 34.6623C82.9412 34.6022 82.996 34.5047 83.0456 34.3697L83.1218 34.1619L82.1385 31.4889H82.5816L83.3157 33.6079H83.3434L84.0774 31.4889H84.5206L83.3919 34.5359C83.3411 34.6732 83.2782 34.7869 83.2032 34.8769C83.1281 34.9681 83.041 35.0356 82.9417 35.0795C82.8436 35.1233 82.7328 35.1453 82.6093 35.1453Z" fill="#343741"/>
</svg>
