<svg width="41" height="41" viewBox="0 0 41 41" fill="none" xmlns="http://www.w3.org/2000/svg">
<path d="M6.68359 32.5774V7.51999C6.68359 6.41238 7.12359 5.35014 7.90679 4.56694C8.68998 3.78375 9.75222 3.34375 10.8598 3.34375H31.741C32.1841 3.34375 32.609 3.51975 32.9222 3.83303C33.2355 4.14631 33.4115 4.5712 33.4115 5.01425V35.0832C33.4115 35.5262 33.2355 35.9511 32.9222 36.2644C32.609 36.5777 32.1841 36.7537 31.741 36.7537H10.8598C9.75222 36.7537 8.68998 36.3137 7.90679 35.5305C7.12359 34.7473 6.68359 33.685 6.68359 32.5774ZM6.68359 32.5774C6.68359 31.4698 7.12359 30.4076 7.90679 29.6244C8.68998 28.8412 9.75222 28.4012 10.8598 28.4012H33.4115" stroke="#0B64DD" stroke-width="3.34099" stroke-linecap="round" stroke-linejoin="round"/>
<path d="M13.3672 21.7169L20.0492 10.0234L26.7311 21.7169" stroke="#0B64DD" stroke-width="3.34099" stroke-linecap="round" stroke-linejoin="round"/>
<path d="M15.2031 18.375H24.7249" stroke="#0B64DD" stroke-width="3.34099" stroke-linecap="round" stroke-linejoin="round"/>
</svg>
