<svg width="44" height="44" viewBox="0 0 44 44" fill="none" xmlns="http://www.w3.org/2000/svg">
<path d="M22.0013 33H7.33464C6.36217 33 5.42954 32.6137 4.74191 31.9261C4.05428 31.2384 3.66797 30.3058 3.66797 29.3333V14.6667C3.66797 13.6942 4.05428 12.7616 4.74191 12.0739C5.42954 11.3863 6.36217 11 7.33464 11H36.668C37.6404 11 38.5731 11.3863 39.2607 12.0739C39.9483 12.7616 40.3346 13.6942 40.3346 14.6667V23.8333" stroke="#FF957D" stroke-width="3.66667" stroke-linecap="round" stroke-linejoin="round"/>
<path d="M33 22H33.0183" stroke="#FF957D" stroke-width="3.66667" stroke-linecap="round" stroke-linejoin="round"/>
<path d="M34.832 40.3281V29.3281" stroke="#FF957D" stroke-width="3.66667" stroke-linecap="round" stroke-linejoin="round"/>
<path d="M40.332 34.8281L34.832 29.3281L29.332 34.8281" stroke="#FF957D" stroke-width="3.66667" stroke-linecap="round" stroke-linejoin="round"/>
<path d="M11 22H11.0183" stroke="#FF957D" stroke-width="3.66667" stroke-linecap="round" stroke-linejoin="round"/>
<path d="M21.9987 25.6615C24.0237 25.6615 25.6654 24.0198 25.6654 21.9948C25.6654 19.9697 24.0237 18.3281 21.9987 18.3281C19.9737 18.3281 18.332 19.9697 18.332 21.9948C18.332 24.0198 19.9737 25.6615 21.9987 25.6615Z" stroke="#FF957D" stroke-width="3.66667" stroke-linecap="round" stroke-linejoin="round"/>
</svg>
