<svg width="44" height="44" viewBox="0 0 44 44" fill="none" xmlns="http://www.w3.org/2000/svg">
<path d="M34.8346 31.1654H38.5013C39.6013 31.1654 40.3346 30.432 40.3346 29.332V23.832C40.3346 22.182 39.0513 20.7154 37.5846 20.3487C34.2846 19.432 29.3346 18.332 29.3346 18.332C29.3346 18.332 26.9513 15.7654 25.3013 14.1154C24.3846 13.382 23.2846 12.832 22.0013 12.832H9.16797C8.06797 12.832 7.1513 13.5654 6.6013 14.482L4.03464 19.7987C3.79187 20.5068 3.66797 21.2502 3.66797 21.9987V29.332C3.66797 30.432 4.4013 31.1654 5.5013 31.1654H9.16797" stroke="#D00CA4" stroke-width="3.66667" stroke-linecap="round" stroke-linejoin="round"/>
<path d="M12.8346 34.8333C14.8597 34.8333 16.5013 33.1917 16.5013 31.1667C16.5013 29.1416 14.8597 27.5 12.8346 27.5C10.8096 27.5 9.16797 29.1416 9.16797 31.1667C9.16797 33.1917 10.8096 34.8333 12.8346 34.8333Z" stroke="#D00CA4" stroke-width="3.66667" stroke-linecap="round" stroke-linejoin="round"/>
<path d="M16.5 31.168H27.5" stroke="#D00CA4" stroke-width="3.66667" stroke-linecap="round" stroke-linejoin="round"/>
<path d="M31.1667 34.8333C33.1917 34.8333 34.8333 33.1917 34.8333 31.1667C34.8333 29.1416 33.1917 27.5 31.1667 27.5C29.1416 27.5 27.5 29.1416 27.5 31.1667C27.5 33.1917 29.1416 34.8333 31.1667 34.8333Z" stroke="#D00CA4" stroke-width="3.66667" stroke-linecap="round" stroke-linejoin="round"/>
</svg>
