<svg width="44" height="44" viewBox="0 0 44 44" fill="none" xmlns="http://www.w3.org/2000/svg">
<path d="M22 5.5V16.5" stroke="#8B3BDB" stroke-width="3.66667" stroke-linecap="round" stroke-linejoin="round"/>
<path d="M30.7267 5.50009C31.41 5.49533 32.0811 5.68163 32.6642 6.03797C33.2473 6.3943 33.7192 6.90649 34.0267 7.51676L38.115 15.7283C38.3679 16.2357 38.4997 16.7948 38.5 17.3618V34.8334C38.5 35.8059 38.1137 36.7385 37.4261 37.4261C36.7384 38.1138 35.8058 38.5001 34.8333 38.5001H9.16667C8.19421 38.5001 7.26158 38.1138 6.57394 37.4261C5.88631 36.7385 5.5 35.8059 5.5 34.8334V17.3654C5.50004 16.7965 5.63248 16.2353 5.88683 15.7264L9.99167 7.51676C10.2978 6.90929 10.7668 6.39895 11.3464 6.0428C11.9259 5.68666 12.5931 5.49875 13.2733 5.50009H30.7267Z" stroke="#8B3BDB" stroke-width="3.66667" stroke-linecap="round" stroke-linejoin="round"/>
<path d="M5.59766 16.5234H38.4015" stroke="#8B3BDB" stroke-width="3.66667" stroke-linecap="round" stroke-linejoin="round"/>
</svg>
